<svg width="25" height="25" viewBox="0 0 25 25" fill="none" xmlns="http://www.w3.org/2000/svg">
<path d="M14.4956 12.4988L20.5814 6.4263C20.8479 6.15975 20.9976 5.79824 20.9976 5.42129C20.9976 5.04434 20.8479 4.68283 20.5814 4.41629C20.3148 4.14974 19.9534 4 19.5765 4C19.1996 4 18.8381 4.14974 18.5716 4.41629L12.5 10.5029L6.42837 4.41629C6.16186 4.14974 5.8004 4 5.42351 4C5.04661 4 4.68515 4.14974 4.41864 4.41629C4.15214 4.68283 4.00242 5.04434 4.00242 5.42129C4.00242 5.79824 4.15214 6.15975 4.41864 6.4263L10.5044 12.4988L4.41864 18.5713C4.28599 18.7029 4.1807 18.8594 4.10885 19.0319C4.03699 19.2044 4 19.3894 4 19.5763C4 19.7632 4.03699 19.9482 4.10885 20.1207C4.1807 20.2932 4.28599 20.4497 4.41864 20.5813C4.55021 20.714 4.70675 20.8193 4.87921 20.8911C5.05168 20.963 5.23667 21 5.42351 21C5.61034 21 5.79533 20.963 5.9678 20.8911C6.14026 20.8193 6.2968 20.714 6.42837 20.5813L12.5 14.4946L18.5716 20.5813C18.7032 20.714 18.8597 20.8193 19.0322 20.8911C19.2047 20.963 19.3897 21 19.5765 21C19.7633 21 19.9483 20.963 20.1208 20.8911C20.2933 20.8193 20.4498 20.714 20.5814 20.5813C20.714 20.4497 20.8193 20.2932 20.8912 20.1207C20.963 19.9482 21 19.7632 21 19.5763C21 19.3894 20.963 19.2044 20.8912 19.0319C20.8193 18.8594 20.714 18.7029 20.5814 18.5713L14.4956 12.4988Z" fill="#3A3845"/>
</svg>
