<svg width="126" height="88" viewBox="0 0 126 88" fill="none" xmlns="http://www.w3.org/2000/svg">
<path d="M12.1956 22.0116C10.8159 13.2609 17.769 5.40864 26.7008 5.63057L111.429 7.7359C119.435 7.93481 125.718 14.6027 125.376 22.533L124.138 51.1466C123.848 57.8263 118.896 63.4005 112.249 64.5286L35.6512 77.5271C27.7769 78.8633 20.3227 73.5533 19.0889 65.729L12.1956 22.0116Z" fill="#3A3845"/>
<path d="M2.74392 16.8642C1.31744 8.09707 8.27131 0.199182 17.2272 0.414839L103.285 2.4871C111.301 2.68015 117.595 9.36206 117.241 17.3038L116.013 44.8089C115.714 51.5084 110.725 57.0863 104.052 58.1837L26.1205 70.9999C18.2946 72.287 10.9048 67.0213 9.64167 59.2579L2.74392 16.8642Z" fill="#826F66"/>
<path d="M107.864 87.5269C97.0458 75.8567 74.9318 52.2323 73.0227 51.0968L104.523 44L107.864 87.5269Z" fill="#826F66"/>
<path d="M40.5682 28.16C40.6064 28.1979 40.6 28.2421 40.5491 28.2925L40.0909 28.5953C40.0527 28.6331 40.0081 28.6268 39.9573 28.5764C39.6645 28.1726 39.2191 27.9708 38.6209 27.9708C38.15 27.9708 37.7618 28.1032 37.4564 28.3682C37.1509 28.6331 36.9982 28.9674 36.9982 29.3712C36.9982 29.8001 37.0809 30.1786 37.2464 30.5067C37.4118 30.8221 37.6282 31.1123 37.8954 31.3772C38.1754 31.6296 38.5954 31.9828 39.1554 32.437C39.7791 32.9416 40.2882 33.3958 40.6827 33.7996C41.09 34.1907 41.44 34.6701 41.7327 35.2379C42.0255 35.793 42.1718 36.4112 42.1718 37.0925C42.1718 37.6981 42.0191 38.2406 41.7136 38.72C41.4209 39.1868 41.0137 39.5527 40.4918 39.8176C39.97 40.0826 39.3781 40.2151 38.7164 40.2151C38.0036 40.2151 37.3609 40.0637 36.7882 39.7609C36.2281 39.4455 35.7828 39.0102 35.4518 38.4551C35.1209 37.8999 34.9491 37.2691 34.9364 36.5626C34.9364 36.4995 34.9681 36.468 35.0318 36.468H35.5664C35.63 36.468 35.6618 36.4995 35.6618 36.5626C35.6745 37.4331 35.9673 38.1397 36.54 38.6822C37.1127 39.2246 37.8382 39.4959 38.7164 39.4959C39.5309 39.4959 40.1864 39.2752 40.6827 38.8336C41.1918 38.3794 41.4464 37.799 41.4464 37.0925C41.4464 36.5122 41.3191 35.9885 41.0645 35.5217C40.81 35.055 40.5109 34.6575 40.1673 34.3295C39.8363 33.9888 39.3464 33.5472 38.6973 33.0047C38.0864 32.5001 37.6346 32.1027 37.3418 31.8125C37.0491 31.5223 36.7946 31.1754 36.5782 30.7716C36.3746 30.3679 36.2727 29.9011 36.2727 29.3712C36.2727 28.7656 36.4954 28.261 36.9409 27.8572C37.3864 27.4535 37.9463 27.2516 38.6209 27.2516C39.0282 27.2516 39.4036 27.3337 39.7473 27.4976C40.0909 27.649 40.3646 27.8698 40.5682 28.16ZM48.6141 27.3273C48.6395 27.3273 48.6586 27.3337 48.6714 27.3462C48.6968 27.3588 48.7032 27.3778 48.6905 27.403C48.4996 28.4628 47.9968 29.674 47.1823 31.0366C46.3677 32.3866 45.375 33.6734 44.2041 34.8972C45.2986 35.3893 46.2405 36.1084 47.0296 37.0546C47.8186 37.9883 48.3341 39.0039 48.576 40.1015C48.5886 40.1268 48.5823 40.1519 48.5569 40.1772C48.5314 40.2025 48.5059 40.2151 48.4805 40.2151L47.946 40.2718C47.9078 40.2718 47.8759 40.2466 47.8505 40.1961C47.6723 39.2625 47.2332 38.3794 46.5332 37.5467C45.8332 36.714 44.9869 36.0642 43.9941 35.5974C43.9686 37.4016 43.9241 38.9156 43.8605 40.1394C43.8605 40.1646 43.8477 40.1898 43.8223 40.2151C43.8095 40.2276 43.7904 40.234 43.765 40.234L43.2305 40.2151C43.1668 40.2151 43.135 40.1836 43.135 40.1204C43.2368 38.2406 43.2878 35.875 43.2878 33.0237C43.2878 30.677 43.2559 28.7845 43.1923 27.3462C43.1923 27.2831 43.2241 27.2516 43.2878 27.2516L43.8223 27.2138C43.8859 27.2138 43.9178 27.2453 43.9178 27.3084C43.9813 29.1756 44.0132 31.024 44.0132 32.8533V34.0645C45.0441 32.9165 45.9159 31.7431 46.6287 30.5445C47.3541 29.3333 47.7995 28.2736 47.965 27.3652C47.9904 27.3021 48.0286 27.2705 48.0796 27.2705L48.6141 27.3273ZM53.7125 27.2138C55.1252 34.2538 55.8888 38.5497 56.0034 40.1015C56.0034 40.1646 55.9715 40.1961 55.9079 40.1961L55.3734 40.234C55.3097 40.234 55.2779 40.2025 55.2779 40.1394C55.2397 39.6852 55.1634 39.0985 55.0488 38.3794C54.6415 38.4298 54.1134 38.4551 53.4643 38.4551C52.5733 38.4551 51.7079 38.4109 50.8679 38.3226C50.6133 38.9029 50.3334 39.5023 50.0279 40.1204C50.0151 40.1457 49.996 40.1646 49.9706 40.1772C49.9452 40.1898 49.9197 40.1898 49.8943 40.1772L49.417 39.9123C49.366 39.8744 49.3533 39.8366 49.3788 39.7987C49.6588 39.2184 49.9006 38.6947 50.1043 38.228L49.8752 38.1901L49.9897 37.471L50.3906 37.5278C51.0524 35.9128 51.6061 34.2096 52.0516 32.4181C52.4969 30.6139 52.8088 28.8917 52.987 27.2516L53.7125 27.2138ZM51.1543 37.6224C52.0452 37.7107 52.7897 37.7549 53.3879 37.7549C53.9352 37.7549 54.4506 37.7233 54.9343 37.6602C54.616 35.7425 54.107 33.0237 53.407 29.5037C52.9615 32.2036 52.2106 34.9098 51.1543 37.6224ZM68.5638 29.2198C68.5638 33.2193 68.4938 36.8465 68.3539 40.1015C68.3539 40.1268 68.3411 40.1457 68.3157 40.1583C68.3029 40.1709 68.2838 40.1772 68.2584 40.1772L67.6284 40.2151C66.1393 38.7011 64.4911 36.8843 62.6839 34.7647C60.8893 32.6452 59.222 30.5571 57.682 28.5007C57.7329 30.5698 57.7584 33.1561 57.7584 36.2598C57.7584 38.0261 57.752 39.3193 57.7393 40.1394C57.7393 40.2025 57.7074 40.234 57.6439 40.234L57.1093 40.1961C57.0838 40.1961 57.0583 40.1898 57.0329 40.1772C57.0201 40.1519 57.0139 40.1268 57.0139 40.1015C57.0265 39.2562 57.0329 37.9252 57.0329 36.1084C57.0329 32.7524 56.9948 29.8443 56.9183 27.3841C56.9183 27.3588 56.9247 27.3399 56.9375 27.3273C56.9629 27.3021 56.9884 27.2895 57.0139 27.2895L57.5483 27.2516C57.5866 27.2516 57.6057 27.258 57.6057 27.2705C57.6439 27.2705 57.6756 27.2958 57.7011 27.3462C59.2284 29.428 60.8956 31.5412 62.7029 33.686C64.5102 35.8182 66.1647 37.6413 67.6666 39.1553C67.7811 35.9759 67.8384 32.5064 67.8384 28.7467V27.3652C67.8384 27.3021 67.8702 27.2705 67.9339 27.2705H68.4684C68.532 27.2705 68.5638 27.3021 68.5638 27.3652V29.2198ZM72.1487 40.1204C72.1487 40.1836 72.1169 40.2151 72.0533 40.2151L70.4878 40.1961C70.1569 40.1961 69.8832 40.2025 69.6669 40.2151C69.6033 40.2151 69.5715 40.1836 69.5715 40.1204V39.5905C69.5715 39.5653 69.5778 39.5464 69.5906 39.5338C69.616 39.5085 69.6414 39.4959 69.6669 39.4959C69.8705 39.4833 70.1314 39.477 70.4496 39.477L70.5069 37.0357C70.5196 36.7708 70.5323 36.449 70.5451 36.0705C70.5578 35.6795 70.5642 35.2315 70.5642 34.7269V33.7428C70.5642 32.9606 70.5514 31.7621 70.526 30.1471L70.5069 27.9708L70.0678 27.9897C69.9915 27.9897 69.9533 27.9582 69.9533 27.8951V27.3652C69.9533 27.3399 69.9596 27.321 69.9724 27.3084C69.9978 27.2831 70.0233 27.2705 70.0487 27.2705L70.6406 27.2516C70.7296 27.2516 70.8378 27.258 70.9651 27.2705C71.105 27.2705 71.3341 27.2705 71.6524 27.2705C71.6778 27.2705 71.6969 27.2831 71.7096 27.3084C71.735 27.321 71.7478 27.3399 71.7478 27.3652L71.7669 27.8951C71.7669 27.9582 71.7287 27.9897 71.6524 27.9897H71.2324L71.2515 30.1093C71.2769 31.7242 71.2897 32.9354 71.2897 33.7428V34.7269C71.2897 35.2442 71.2833 35.6984 71.2706 36.0895C71.2578 36.468 71.2451 36.7897 71.2324 37.0546L71.1751 39.4959H72.0342C72.0596 39.4959 72.0787 39.5085 72.0915 39.5338C72.1169 39.5464 72.1297 39.5653 72.1297 39.5905L72.1487 40.1204ZM82.9314 35.8435C82.9314 35.9066 82.8995 35.9381 82.8359 35.9381C82.505 35.9381 82.2568 35.9444 82.0914 35.957C82.1041 36.0831 82.1105 36.2724 82.1105 36.5247C82.1105 37.6602 81.7859 38.5623 81.1368 39.231C80.4878 39.8997 79.6032 40.234 78.4832 40.234C77.2868 40.234 76.2687 39.969 75.4287 39.4392C74.5887 38.8967 73.9587 38.1838 73.5387 37.3007C73.1187 36.4175 72.9087 35.4586 72.9087 34.4241C72.9087 33.2508 73.1759 32.1216 73.7105 31.0366C74.245 29.9389 75.0277 29.0431 76.0587 28.3493C77.1023 27.6554 78.3368 27.3021 79.7623 27.2895C79.8259 27.2895 79.8577 27.321 79.8577 27.3841V27.914C79.8577 27.9771 79.8259 28.0086 79.7623 28.0086C78.4768 28.0212 77.3695 28.3429 76.4405 28.9738C75.5241 29.592 74.824 30.3868 74.3405 31.3583C73.8695 32.3298 73.6341 33.3454 73.6341 34.4052C73.6341 35.3136 73.8122 36.1588 74.1687 36.9411C74.5377 37.7107 75.085 38.3352 75.8105 38.8146C76.5486 39.2814 77.4395 39.5148 78.4832 39.5148C79.3868 39.5148 80.0995 39.2436 80.6214 38.7011C81.1431 38.1459 81.4041 37.4016 81.4041 36.468C81.4041 36.2535 81.3977 36.0895 81.385 35.9759C80.8887 36.0138 80.3923 36.0327 79.8959 36.0327C79.8323 36.0327 79.8005 36.0012 79.8005 35.9381L79.7814 35.4082C79.7814 35.3451 79.8132 35.3136 79.8768 35.3136C80.3604 35.3136 80.8505 35.2946 81.3468 35.2568C82.0086 35.2315 82.4986 35.2189 82.8168 35.2189C82.8804 35.2189 82.9123 35.2504 82.9123 35.3136L82.9314 35.8435ZM87.9605 27.2138C89.3732 34.2538 90.1369 38.5497 90.2514 40.1015C90.2514 40.1646 90.2195 40.1961 90.156 40.1961L89.6214 40.234C89.5577 40.234 89.526 40.2025 89.526 40.1394C89.4878 39.6852 89.4114 39.0985 89.2969 38.3794C88.8896 38.4298 88.3614 38.4551 87.7123 38.4551C86.8213 38.4551 85.956 38.4109 85.116 38.3226C84.8614 38.9029 84.5814 39.5023 84.276 40.1204C84.2632 40.1457 84.2441 40.1646 84.2187 40.1772C84.1932 40.1898 84.1677 40.1898 84.1423 40.1772L83.665 39.9123C83.6141 39.8744 83.6014 39.8366 83.6269 39.7987C83.9068 39.2184 84.1486 38.6947 84.3523 38.228L84.1232 38.1901L84.2378 37.471L84.6387 37.5278C85.3005 35.9128 85.8541 34.2096 86.2996 32.4181C86.745 30.6139 87.0568 28.8917 87.235 27.2516L87.9605 27.2138ZM85.4023 37.6224C86.2932 37.7107 87.0377 37.7549 87.636 37.7549C88.1832 37.7549 88.6987 37.7233 89.1823 37.6602C88.8641 35.7425 88.355 33.0237 87.6551 29.5037C87.2096 32.2036 86.4586 34.9098 85.4023 37.6224Z" fill="white"/>
<path d="M41.5227 28.16C41.5609 28.1979 41.5545 28.2421 41.5036 28.2925L41.0455 28.5953C41.0073 28.6331 40.9627 28.6268 40.9118 28.5764C40.6191 28.1726 40.1737 27.9708 39.5755 27.9708C39.1046 27.9708 38.7164 28.1032 38.4109 28.3682C38.1055 28.6331 37.9527 28.9674 37.9527 29.3712C37.9527 29.8001 38.0355 30.1786 38.2009 30.5067C38.3663 30.8221 38.5827 31.1123 38.85 31.3772C39.13 31.6296 39.55 31.9828 40.11 32.437C40.7336 32.9416 41.2428 33.3958 41.6373 33.7996C42.0446 34.1907 42.3945 34.6701 42.6873 35.2379C42.98 35.793 43.1264 36.4112 43.1264 37.0925C43.1264 37.6981 42.9736 38.2406 42.6682 38.72C42.3754 39.1868 41.9682 39.5527 41.4464 39.8176C40.9245 40.0826 40.3327 40.2151 39.6709 40.2151C38.9582 40.2151 38.3155 40.0637 37.7427 39.7609C37.1827 39.4455 36.7373 39.0102 36.4064 38.4551C36.0754 37.8999 35.9036 37.2691 35.8909 36.5626C35.8909 36.4995 35.9227 36.468 35.9864 36.468H36.5209C36.5846 36.468 36.6164 36.4995 36.6164 36.5626C36.6291 37.4331 36.9218 38.1397 37.4945 38.6822C38.0673 39.2246 38.7927 39.4959 39.6709 39.4959C40.4854 39.4959 41.1409 39.2752 41.6373 38.8336C42.1463 38.3794 42.4009 37.799 42.4009 37.0925C42.4009 36.5122 42.2737 35.9885 42.0191 35.5217C41.7645 35.055 41.4655 34.6575 41.1218 34.3295C40.7909 33.9888 40.3009 33.5472 39.6518 33.0047C39.0409 32.5001 38.5891 32.1027 38.2964 31.8125C38.0036 31.5223 37.7491 31.1754 37.5327 30.7716C37.3291 30.3679 37.2273 29.9011 37.2273 29.3712C37.2273 28.7656 37.45 28.261 37.8955 27.8572C38.3409 27.4535 38.9009 27.2516 39.5755 27.2516C39.9828 27.2516 40.3582 27.3337 40.7018 27.4976C41.0455 27.649 41.3191 27.8698 41.5227 28.16ZM49.5687 27.3273C49.5941 27.3273 49.6132 27.3337 49.626 27.3462C49.6514 27.3588 49.6577 27.3778 49.6451 27.403C49.4541 28.4628 48.9514 29.674 48.1369 31.0366C47.3223 32.3866 46.3295 33.6734 45.1587 34.8972C46.2532 35.3893 47.195 36.1084 47.9841 37.0546C48.7732 37.9883 49.2886 39.0039 49.5305 40.1015C49.5432 40.1268 49.5368 40.1519 49.5114 40.1772C49.4859 40.2025 49.4604 40.2151 49.4351 40.2151L48.9005 40.2718C48.8623 40.2718 48.8304 40.2466 48.8051 40.1961C48.6268 39.2625 48.1877 38.3794 47.4878 37.5467C46.7877 36.714 45.9414 36.0642 44.9487 35.5974C44.9232 37.4016 44.8786 38.9156 44.8151 40.1394C44.8151 40.1646 44.8023 40.1898 44.7769 40.2151C44.7641 40.2276 44.745 40.234 44.7196 40.234L44.1851 40.2151C44.1214 40.2151 44.0896 40.1836 44.0896 40.1204C44.1913 38.2406 44.2423 35.875 44.2423 33.0237C44.2423 30.677 44.2104 28.7845 44.1469 27.3462C44.1469 27.2831 44.1787 27.2516 44.2423 27.2516L44.7769 27.2138C44.8404 27.2138 44.8723 27.2453 44.8723 27.3084C44.9359 29.1756 44.9678 31.024 44.9678 32.8533V34.0645C45.9987 32.9165 46.8705 31.7431 47.5832 30.5445C48.3087 29.3333 48.7541 28.2736 48.9196 27.3652C48.945 27.3021 48.9832 27.2705 49.0341 27.2705L49.5687 27.3273ZM54.667 27.2138C56.0797 34.2538 56.8434 38.5497 56.9579 40.1015C56.9579 40.1646 56.926 40.1961 56.8625 40.1961L56.3279 40.234C56.2643 40.234 56.2325 40.2025 56.2325 40.1394C56.1943 39.6852 56.1179 39.0985 56.0034 38.3794C55.5961 38.4298 55.0679 38.4551 54.4188 38.4551C53.5279 38.4551 52.6625 38.4109 51.8225 38.3226C51.5679 38.9029 51.2879 39.5023 50.9825 40.1204C50.9697 40.1457 50.9506 40.1646 50.9252 40.1772C50.8997 40.1898 50.8742 40.1898 50.8488 40.1772L50.3716 39.9123C50.3206 39.8744 50.3079 39.8366 50.3334 39.7987C50.6133 39.2184 50.8551 38.6947 51.0588 38.228L50.8297 38.1901L50.9443 37.471L51.3452 37.5278C52.007 35.9128 52.5606 34.2096 53.0061 32.4181C53.4515 30.6139 53.7633 28.8917 53.9416 27.2516L54.667 27.2138ZM52.1088 37.6224C52.9997 37.7107 53.7443 37.7549 54.3425 37.7549C54.8897 37.7549 55.4052 37.7233 55.8888 37.6602C55.5706 35.7425 55.0615 33.0237 54.3616 29.5037C53.9161 32.2036 53.1651 34.9098 52.1088 37.6224ZM69.5184 29.2198C69.5184 33.2193 69.4483 36.8465 69.3084 40.1015C69.3084 40.1268 69.2956 40.1457 69.2702 40.1583C69.2574 40.1709 69.2383 40.1772 69.2129 40.1772L68.583 40.2151C67.0939 38.7011 65.4456 36.8843 63.6384 34.7647C61.8439 32.6452 60.1766 30.5571 58.6366 28.5007C58.6875 30.5698 58.7129 33.1561 58.7129 36.2598C58.7129 38.0261 58.7066 39.3193 58.6939 40.1394C58.6939 40.2025 58.662 40.234 58.5984 40.234L58.0639 40.1961C58.0384 40.1961 58.0129 40.1898 57.9875 40.1772C57.9747 40.1519 57.9684 40.1268 57.9684 40.1015C57.9811 39.2562 57.9875 37.9252 57.9875 36.1084C57.9875 32.7524 57.9493 29.8443 57.8729 27.3841C57.8729 27.3588 57.8792 27.3399 57.892 27.3273C57.9174 27.3021 57.9429 27.2895 57.9684 27.2895L58.5029 27.2516C58.5411 27.2516 58.5602 27.258 58.5602 27.2705C58.5984 27.2705 58.6302 27.2958 58.6557 27.3462C60.1829 29.428 61.8502 31.5412 63.6575 33.686C65.4647 35.8182 67.1193 37.6413 68.6211 39.1553C68.7357 35.9759 68.793 32.5064 68.793 28.7467V27.3652C68.793 27.3021 68.8247 27.2705 68.8884 27.2705H69.4229C69.4865 27.2705 69.5184 27.3021 69.5184 27.3652V29.2198ZM73.1033 40.1204C73.1033 40.1836 73.0714 40.2151 73.0078 40.2151L71.4424 40.1961C71.1114 40.1961 70.8378 40.2025 70.6215 40.2151C70.5578 40.2151 70.526 40.1836 70.526 40.1204V39.5905C70.526 39.5653 70.5323 39.5464 70.5451 39.5338C70.5705 39.5085 70.596 39.4959 70.6215 39.4959C70.8251 39.4833 71.086 39.477 71.4042 39.477L71.4615 37.0357C71.4742 36.7708 71.4869 36.449 71.4997 36.0705C71.5124 35.6795 71.5188 35.2315 71.5188 34.7269V33.7428C71.5188 32.9606 71.506 31.7621 71.4806 30.1471L71.4615 27.9708L71.0224 27.9897C70.946 27.9897 70.9078 27.9582 70.9078 27.8951V27.3652C70.9078 27.3399 70.9141 27.321 70.9269 27.3084C70.9523 27.2831 70.9778 27.2705 71.0033 27.2705L71.5951 27.2516C71.6842 27.2516 71.7923 27.258 71.9197 27.2705C72.0596 27.2705 72.2887 27.2705 72.6069 27.2705C72.6323 27.2705 72.6514 27.2831 72.6642 27.3084C72.6896 27.321 72.7024 27.3399 72.7024 27.3652L72.7215 27.8951C72.7215 27.9582 72.6833 27.9897 72.6069 27.9897H72.1869L72.206 30.1093C72.2314 31.7242 72.2442 32.9354 72.2442 33.7428V34.7269C72.2442 35.2442 72.2378 35.6984 72.2251 36.0895C72.2123 36.468 72.1996 36.7897 72.1869 37.0546L72.1297 39.4959H72.9888C73.0141 39.4959 73.0332 39.5085 73.046 39.5338C73.0714 39.5464 73.0842 39.5653 73.0842 39.5905L73.1033 40.1204ZM83.8859 35.8435C83.8859 35.9066 83.8541 35.9381 83.7905 35.9381C83.4595 35.9381 83.2114 35.9444 83.0459 35.957C83.0586 36.0831 83.065 36.2724 83.065 36.5247C83.065 37.6602 82.7405 38.5623 82.0914 39.231C81.4423 39.8997 80.5577 40.234 79.4378 40.234C78.2413 40.234 77.2232 39.969 76.3832 39.4392C75.5432 38.8967 74.9132 38.1838 74.4932 37.3007C74.0732 36.4175 73.8632 35.4586 73.8632 34.4241C73.8632 33.2508 74.1305 32.1216 74.665 31.0366C75.1996 29.9389 75.9823 29.0431 77.0132 28.3493C78.0568 27.6554 79.2913 27.3021 80.7168 27.2895C80.7804 27.2895 80.8123 27.321 80.8123 27.3841V27.914C80.8123 27.9771 80.7804 28.0086 80.7168 28.0086C79.4314 28.0212 78.3241 28.3429 77.395 28.9738C76.4787 29.592 75.7786 30.3868 75.295 31.3583C74.8241 32.3298 74.5887 33.3454 74.5887 34.4052C74.5887 35.3136 74.7668 36.1588 75.1232 36.9411C75.4922 37.7107 76.0396 38.3352 76.765 38.8146C77.5032 39.2814 78.3941 39.5148 79.4378 39.5148C80.3413 39.5148 81.0541 39.2436 81.5759 38.7011C82.0977 38.1459 82.3587 37.4016 82.3587 36.468C82.3587 36.2535 82.3523 36.0895 82.3396 35.9759C81.8432 36.0138 81.3468 36.0327 80.8505 36.0327C80.7868 36.0327 80.755 36.0012 80.755 35.9381L80.7359 35.4082C80.7359 35.3451 80.7677 35.3136 80.8314 35.3136C81.315 35.3136 81.805 35.2946 82.3014 35.2568C82.9632 35.2315 83.4531 35.2189 83.7714 35.2189C83.835 35.2189 83.8668 35.2504 83.8668 35.3136L83.8859 35.8435ZM88.9151 27.2138C90.3278 34.2538 91.0914 38.5497 91.206 40.1015C91.206 40.1646 91.1741 40.1961 91.1105 40.1961L90.576 40.234C90.5123 40.234 90.4805 40.2025 90.4805 40.1394C90.4423 39.6852 90.366 39.0985 90.2514 38.3794C89.8441 38.4298 89.316 38.4551 88.6669 38.4551C87.7759 38.4551 86.9105 38.4109 86.0705 38.3226C85.8159 38.9029 85.536 39.5023 85.2305 40.1204C85.2177 40.1457 85.1986 40.1646 85.1732 40.1772C85.1478 40.1898 85.1223 40.1898 85.0969 40.1772L84.6196 39.9123C84.5686 39.8744 84.5559 39.8366 84.5814 39.7987C84.8614 39.2184 85.1032 38.6947 85.3069 38.228L85.0778 38.1901L85.1923 37.471L85.5932 37.5278C86.255 35.9128 86.8087 34.2096 87.2542 32.4181C87.6995 30.6139 88.0114 28.8917 88.1896 27.2516L88.9151 27.2138ZM86.3569 37.6224C87.2478 37.7107 87.9923 37.7549 88.5905 37.7549C89.1378 37.7549 89.6532 37.7233 90.1369 37.6602C89.8186 35.7425 89.3096 33.0237 88.6096 29.5037C88.1641 32.2036 87.4132 34.9098 86.3569 37.6224Z" fill="white"/>
<path d="M39.6136 28.16C39.6518 28.1979 39.6454 28.2421 39.5945 28.2925L39.1364 28.5953C39.0982 28.6331 39.0536 28.6268 39.0027 28.5764C38.71 28.1726 38.2646 27.9708 37.6664 27.9708C37.1955 27.9708 36.8073 28.1032 36.5018 28.3682C36.1964 28.6331 36.0436 28.9674 36.0436 29.3712C36.0436 29.8001 36.1264 30.1786 36.2918 30.5067C36.4572 30.8221 36.6736 31.1123 36.9409 31.3772C37.2209 31.6296 37.6409 31.9828 38.2009 32.437C38.8245 32.9416 39.3337 33.3958 39.7282 33.7996C40.1355 34.1907 40.4854 34.6701 40.7782 35.2379C41.0709 35.793 41.2173 36.4112 41.2173 37.0925C41.2173 37.6981 41.0645 38.2406 40.7591 38.72C40.4663 39.1868 40.0591 39.5527 39.5373 39.8176C39.0154 40.0826 38.4236 40.2151 37.7618 40.2151C37.0491 40.2151 36.4064 40.0637 35.8336 39.7609C35.2736 39.4455 34.8282 39.0102 34.4973 38.4551C34.1663 37.8999 33.9945 37.2691 33.9818 36.5626C33.9818 36.4995 34.0136 36.468 34.0773 36.468H34.6118C34.6755 36.468 34.7073 36.4995 34.7073 36.5626C34.72 37.4331 35.0127 38.1397 35.5854 38.6822C36.1582 39.2246 36.8836 39.4959 37.7618 39.4959C38.5763 39.4959 39.2318 39.2752 39.7282 38.8336C40.2372 38.3794 40.4918 37.799 40.4918 37.0925C40.4918 36.5122 40.3646 35.9885 40.11 35.5217C39.8554 35.055 39.5564 34.6575 39.2127 34.3295C38.8818 33.9888 38.3918 33.5472 37.7427 33.0047C37.1318 32.5001 36.68 32.1027 36.3873 31.8125C36.0945 31.5223 35.84 31.1754 35.6236 30.7716C35.42 30.3679 35.3182 29.9011 35.3182 29.3712C35.3182 28.7656 35.5409 28.261 35.9864 27.8572C36.4318 27.4535 36.9918 27.2516 37.6664 27.2516C38.0737 27.2516 38.4491 27.3337 38.7927 27.4976C39.1364 27.649 39.41 27.8698 39.6136 28.16ZM47.6596 27.3273C47.685 27.3273 47.7041 27.3337 47.7169 27.3462C47.7423 27.3588 47.7487 27.3778 47.736 27.403C47.545 28.4628 47.0423 29.674 46.2278 31.0366C45.4132 32.3866 44.4204 33.6734 43.2496 34.8972C44.3441 35.3893 45.2859 36.1084 46.075 37.0546C46.8641 37.9883 47.3795 39.0039 47.6214 40.1015C47.6341 40.1268 47.6277 40.1519 47.6023 40.1772C47.5768 40.2025 47.5513 40.2151 47.526 40.2151L46.9914 40.2718C46.9532 40.2718 46.9213 40.2466 46.896 40.1961C46.7177 39.2625 46.2787 38.3794 45.5787 37.5467C44.8786 36.714 44.0323 36.0642 43.0396 35.5974C43.0141 37.4016 42.9695 38.9156 42.906 40.1394C42.906 40.1646 42.8932 40.1898 42.8678 40.2151C42.855 40.2276 42.8359 40.234 42.8105 40.234L42.276 40.2151C42.2123 40.2151 42.1805 40.1836 42.1805 40.1204C42.2823 38.2406 42.3332 35.875 42.3332 33.0237C42.3332 30.677 42.3013 28.7845 42.2378 27.3462C42.2378 27.2831 42.2696 27.2516 42.3332 27.2516L42.8678 27.2138C42.9313 27.2138 42.9632 27.2453 42.9632 27.3084C43.0268 29.1756 43.0587 31.024 43.0587 32.8533V34.0645C44.0896 32.9165 44.9614 31.7431 45.6741 30.5445C46.3996 29.3333 46.845 28.2736 47.0105 27.3652C47.0359 27.3021 47.0741 27.2705 47.125 27.2705L47.6596 27.3273ZM52.7579 27.2138C54.1706 34.2538 54.9343 38.5497 55.0488 40.1015C55.0488 40.1646 55.0169 40.1961 54.9534 40.1961L54.4188 40.234C54.3552 40.234 54.3234 40.2025 54.3234 40.1394C54.2852 39.6852 54.2088 39.0985 54.0943 38.3794C53.687 38.4298 53.1588 38.4551 52.5097 38.4551C51.6188 38.4551 50.7534 38.4109 49.9134 38.3226C49.6588 38.9029 49.3788 39.5023 49.0734 40.1204C49.0606 40.1457 49.0415 40.1646 49.0161 40.1772C48.9906 40.1898 48.9651 40.1898 48.9397 40.1772L48.4625 39.9123C48.4115 39.8744 48.3988 39.8366 48.4243 39.7987C48.7042 39.2184 48.946 38.6947 49.1497 38.228L48.9206 38.1901L49.0352 37.471L49.4361 37.5278C50.0979 35.9128 50.6515 34.2096 51.097 32.4181C51.5424 30.6139 51.8542 28.8917 52.0325 27.2516L52.7579 27.2138ZM50.1997 37.6224C51.0906 37.7107 51.8352 37.7549 52.4334 37.7549C52.9806 37.7549 53.4961 37.7233 53.9797 37.6602C53.6615 35.7425 53.1524 33.0237 52.4525 29.5037C52.007 32.2036 51.256 34.9098 50.1997 37.6224ZM67.6093 29.2198C67.6093 33.2193 67.5392 36.8465 67.3993 40.1015C67.3993 40.1268 67.3865 40.1457 67.3611 40.1583C67.3483 40.1709 67.3292 40.1772 67.3038 40.1772L66.6739 40.2151C65.1848 38.7011 63.5365 36.8843 61.7293 34.7647C59.9348 32.6452 58.2675 30.5571 56.7275 28.5007C56.7784 30.5698 56.8039 33.1561 56.8039 36.2598C56.8039 38.0261 56.7975 39.3193 56.7848 40.1394C56.7848 40.2025 56.7529 40.234 56.6893 40.234L56.1548 40.1961C56.1293 40.1961 56.1038 40.1898 56.0784 40.1772C56.0656 40.1519 56.0593 40.1268 56.0593 40.1015C56.072 39.2562 56.0784 37.9252 56.0784 36.1084C56.0784 32.7524 56.0402 29.8443 55.9638 27.3841C55.9638 27.3588 55.9702 27.3399 55.9829 27.3273C56.0083 27.3021 56.0338 27.2895 56.0593 27.2895L56.5938 27.2516C56.632 27.2516 56.6511 27.258 56.6511 27.2705C56.6893 27.2705 56.7211 27.2958 56.7466 27.3462C58.2739 29.428 59.9411 31.5412 61.7484 33.686C63.5556 35.8182 65.2102 37.6413 66.712 39.1553C66.8266 35.9759 66.8839 32.5064 66.8839 28.7467V27.3652C66.8839 27.3021 66.9156 27.2705 66.9793 27.2705H67.5139C67.5774 27.2705 67.6093 27.3021 67.6093 27.3652V29.2198ZM71.1942 40.1204C71.1942 40.1836 71.1623 40.2151 71.0987 40.2151L69.5333 40.1961C69.2023 40.1961 68.9287 40.2025 68.7124 40.2151C68.6487 40.2151 68.6169 40.1836 68.6169 40.1204V39.5905C68.6169 39.5653 68.6232 39.5464 68.636 39.5338C68.6614 39.5085 68.6869 39.4959 68.7124 39.4959C68.916 39.4833 69.1769 39.477 69.4951 39.477L69.5524 37.0357C69.5651 36.7708 69.5778 36.449 69.5906 36.0705C69.6033 35.6795 69.6097 35.2315 69.6097 34.7269V33.7428C69.6097 32.9606 69.5969 31.7621 69.5715 30.1471L69.5524 27.9708L69.1133 27.9897C69.0369 27.9897 68.9987 27.9582 68.9987 27.8951V27.3652C68.9987 27.3399 69.005 27.321 69.0178 27.3084C69.0432 27.2831 69.0687 27.2705 69.0942 27.2705L69.686 27.2516C69.7751 27.2516 69.8832 27.258 70.0106 27.2705C70.1505 27.2705 70.3796 27.2705 70.6978 27.2705C70.7232 27.2705 70.7423 27.2831 70.7551 27.3084C70.7805 27.321 70.7933 27.3399 70.7933 27.3652L70.8124 27.8951C70.8124 27.9582 70.7742 27.9897 70.6978 27.9897H70.2778L70.2969 30.1093C70.3223 31.7242 70.3351 32.9354 70.3351 33.7428V34.7269C70.3351 35.2442 70.3287 35.6984 70.316 36.0895C70.3032 36.468 70.2905 36.7897 70.2778 37.0546L70.2206 39.4959H71.0797C71.105 39.4959 71.1241 39.5085 71.1369 39.5338C71.1623 39.5464 71.1751 39.5653 71.1751 39.5905L71.1942 40.1204ZM81.9768 35.8435C81.9768 35.9066 81.945 35.9381 81.8814 35.9381C81.5504 35.9381 81.3023 35.9444 81.1368 35.957C81.1495 36.0831 81.1559 36.2724 81.1559 36.5247C81.1559 37.6602 80.8314 38.5623 80.1823 39.231C79.5332 39.8997 78.6486 40.234 77.5287 40.234C76.3322 40.234 75.3141 39.969 74.4741 39.4392C73.6341 38.8967 73.0041 38.1838 72.5841 37.3007C72.1641 36.4175 71.9541 35.4586 71.9541 34.4241C71.9541 33.2508 72.2214 32.1216 72.7559 31.0366C73.2905 29.9389 74.0732 29.0431 75.1041 28.3493C76.1477 27.6554 77.3822 27.3021 78.8078 27.2895C78.8713 27.2895 78.9032 27.321 78.9032 27.3841V27.914C78.9032 27.9771 78.8713 28.0086 78.8078 28.0086C77.5223 28.0212 76.415 28.3429 75.4859 28.9738C74.5696 29.592 73.8695 30.3868 73.3859 31.3583C72.915 32.3298 72.6796 33.3454 72.6796 34.4052C72.6796 35.3136 72.8577 36.1588 73.2141 36.9411C73.5831 37.7107 74.1305 38.3352 74.8559 38.8146C75.5941 39.2814 76.485 39.5148 77.5287 39.5148C78.4322 39.5148 79.145 39.2436 79.6668 38.7011C80.1886 38.1459 80.4496 37.4016 80.4496 36.468C80.4496 36.2535 80.4432 36.0895 80.4305 35.9759C79.9341 36.0138 79.4378 36.0327 78.9414 36.0327C78.8777 36.0327 78.8459 36.0012 78.8459 35.9381L78.8268 35.4082C78.8268 35.3451 78.8586 35.3136 78.9223 35.3136C79.4059 35.3136 79.8959 35.2946 80.3923 35.2568C81.0541 35.2315 81.544 35.2189 81.8623 35.2189C81.9259 35.2189 81.9577 35.2504 81.9577 35.3136L81.9768 35.8435ZM87.006 27.2138C88.4187 34.2538 89.1823 38.5497 89.2969 40.1015C89.2969 40.1646 89.265 40.1961 89.2014 40.1961L88.6669 40.234C88.6032 40.234 88.5714 40.2025 88.5714 40.1394C88.5332 39.6852 88.4569 39.0985 88.3423 38.3794C87.935 38.4298 87.4069 38.4551 86.7578 38.4551C85.8668 38.4551 85.0014 38.4109 84.1614 38.3226C83.9068 38.9029 83.6269 39.5023 83.3214 40.1204C83.3086 40.1457 83.2895 40.1646 83.2641 40.1772C83.2387 40.1898 83.2132 40.1898 83.1878 40.1772L82.7105 39.9123C82.6595 39.8744 82.6468 39.8366 82.6723 39.7987C82.9523 39.2184 83.1941 38.6947 83.3978 38.228L83.1687 38.1901L83.2832 37.471L83.6841 37.5278C84.3459 35.9128 84.8996 34.2096 85.3451 32.4181C85.7904 30.6139 86.1023 28.8917 86.2805 27.2516L87.006 27.2138ZM84.4478 37.6224C85.3387 37.7107 86.0832 37.7549 86.6814 37.7549C87.2287 37.7549 87.7441 37.7233 88.2278 37.6602C87.9095 35.7425 87.4005 33.0237 86.7005 29.5037C86.255 32.2036 85.5041 34.9098 84.4478 37.6224Z" fill="white"/>
</svg>
